<svg width="26" height="30" viewBox="0 0 26 30" fill="none" xmlns="http://www.w3.org/2000/svg">
<rect width="26" height="30" fill="#111111"/>
<path d="M16.2772 27.5C15.8438 27.5 15.4737 27.3229 15.1667 26.9688C14.8598 26.6146 14.7063 26.1875 14.7063 25.6875V23.7812H17.8209V25.7188C17.8209 26.2188 17.6719 26.6406 17.374 26.9844C17.0761 27.3281 16.7105 27.5 16.2772 27.5ZM9.77715 27.5C9.34382 27.5 8.97368 27.3229 8.66673 26.9688C8.35979 26.6146 8.20632 26.1875 8.20632 25.6875V22.8438H1.54382C1.21882 22.8438 0.975068 22.6771 0.812568 22.3438C0.650068 22.0104 0.668124 21.6875 0.866735 21.375L5.11882 14.2812H4.11673C3.79173 14.2812 3.54798 14.1146 3.38548 13.7812C3.22298 13.4479 3.24104 13.125 3.43965 12.8125L9.07298 3.59375C9.23548 3.32292 9.46118 3.1875 9.75007 3.1875C10.039 3.1875 10.2647 3.32292 10.4272 3.59375L16.0605 12.8125C16.2591 13.125 16.2772 13.4479 16.1147 13.7812C15.9522 14.1146 15.7084 14.2812 15.3834 14.2812H14.4084L18.6605 21.375C18.823 21.6458 18.832 21.9583 18.6876 22.3125C18.5431 22.6667 18.3084 22.8438 17.9834 22.8438H11.3209V25.7188C11.3209 26.2188 11.1719 26.6406 10.874 26.9844C10.5761 27.3281 10.2105 27.5 9.77715 27.5ZM19.3917 22.8438C19.482 22.6562 19.5633 22.3854 19.6355 22.0312C19.7077 21.6771 19.6535 21.3542 19.473 21.0625L15.8709 15.0625C16.3403 14.9583 16.6789 14.5938 16.8865 13.9688C17.0942 13.3438 17.0445 12.7917 16.7376 12.3125L13.5147 6.96875L15.573 3.59375C15.7355 3.32292 15.9612 3.1875 16.2501 3.1875C16.539 3.1875 16.7647 3.32292 16.9272 3.59375L22.5605 12.8125C22.7591 13.125 22.7772 13.4479 22.6147 13.7812C22.4522 14.1146 22.2084 14.2812 21.8834 14.2812H20.9084L25.1334 21.375C25.332 21.6875 25.3501 22.0104 25.1876 22.3438C25.0251 22.6771 24.7813 22.8438 24.4563 22.8438H19.3917Z" fill="#FFB60D"/>
</svg>
