<svg width="24" height="18" viewBox="0 0 24 18" fill="none" xmlns="http://www.w3.org/2000/svg">
<path d="M2.0835 17.5C1.61683 17.5 1.2085 17.2875 0.858496 16.8625C0.508496 16.4375 0.333496 15.9417 0.333496 15.375V2.625C0.333496 2.08194 0.508496 1.59201 0.858496 1.15521C1.2085 0.718403 1.61683 0.5 2.0835 0.5H5.87516V7.9375C5.87516 8.22083 5.9578 8.46875 6.12308 8.68125C6.28836 8.89375 6.49738 9 6.75016 9C7.00294 9 7.21197 8.89965 7.37725 8.69896C7.54252 8.49826 7.62516 8.24444 7.62516 7.9375V0.5H11.1252V7.9375C11.1252 8.22083 11.2078 8.46875 11.3731 8.68125C11.5384 8.89375 11.7474 9 12.0002 9C12.2529 9 12.462 8.89965 12.6272 8.69896C12.7925 8.49826 12.8752 8.24444 12.8752 7.9375V0.5H16.3752V7.9375C16.3752 8.22083 16.4578 8.46875 16.6231 8.68125C16.7884 8.89375 16.9974 9 17.2502 9C17.5029 9 17.712 8.89965 17.8772 8.69896C18.0425 8.49826 18.1252 8.24444 18.1252 7.9375V0.5H21.9168C22.3835 0.5 22.7918 0.718403 23.1418 1.15521C23.4918 1.59201 23.6668 2.08194 23.6668 2.625V15.375C23.6668 15.9417 23.4918 16.4375 23.1418 16.8625C22.7918 17.2875 22.3835 17.5 21.9168 17.5H2.0835Z" fill="#FFB60D"/>
</svg>
