<svg width="27" height="23" viewBox="0 0 27 23" fill="none" xmlns="http://www.w3.org/2000/svg">
<path d="M21.1705 17.8889V13.7361H17.1818V11.8194H21.1705V7.66667H23.0114V11.8194H27V13.7361H23.0114V17.8889H21.1705ZM12.2727 23L8.37614 19.3583C6.90341 17.9741 5.64034 16.7389 4.58693 15.6528C3.53352 14.5667 2.6642 13.5444 1.97898 12.5861C1.29375 11.6278 0.792614 10.7014 0.475568 9.80694C0.158523 8.9125 0 7.97546 0 6.99583C0 4.99398 0.644318 3.32755 1.93295 1.99653C3.22159 0.665509 4.82727 0 6.75 0C7.81364 0 8.82614 0.228935 9.7875 0.686806C10.7489 1.14468 11.5773 1.79954 12.2727 2.65139C12.9682 1.79954 13.7966 1.14468 14.758 0.686806C15.7193 0.228935 16.7318 0 17.7955 0C19.5341 0 20.9915 0.54838 22.1676 1.64514C23.3438 2.7419 24.075 4.025 24.3614 5.49444C23.9932 5.34537 23.625 5.23356 23.2568 5.15903C22.8886 5.08449 22.5307 5.04722 22.183 5.04722C20.117 5.04722 18.358 5.79792 16.9057 7.29931C15.4534 8.80069 14.7273 10.6269 14.7273 12.7778C14.7273 13.8852 14.942 14.934 15.3716 15.9243C15.8011 16.9146 16.4045 17.7611 17.1818 18.4639C16.7932 18.8259 16.2869 19.2891 15.6631 19.8535C15.0392 20.4178 14.5023 20.913 14.0523 21.3389L12.2727 23Z" fill="#FFB60D"/>
</svg>
