<svg width="28" height="24" viewBox="0 0 28 24" fill="none" xmlns="http://www.w3.org/2000/svg">
<g clip-path="url(#clip0_18_415)">
<path d="M14.4998 23.6666C12.8484 23.6666 11.2877 23.3604 9.81755 22.7479C8.34741 22.1354 7.06355 21.2993 5.96598 20.2396C4.86841 19.1798 4.00244 17.9403 3.36807 16.5208C2.73369 15.1014 2.4165 13.5944 2.4165 12C2.4165 10.3861 2.73369 8.86942 3.36807 7.44998C4.00244 6.03053 4.86841 4.79581 5.96598 3.74581C7.06355 2.69581 8.34741 1.86456 9.81755 1.25206C11.2877 0.639563 12.8484 0.333313 14.4998 0.333313C16.1714 0.333313 17.7422 0.639563 19.2123 1.25206C20.6825 1.86456 21.9613 2.69581 23.0488 3.74581C24.1363 4.79581 24.9972 6.03053 25.6316 7.44998C26.266 8.86942 26.5832 10.3861 26.5832 12C26.5832 13.5944 26.266 15.1014 25.6316 16.5208C24.9972 17.9403 24.1363 19.1798 23.0488 20.2396C21.9613 21.2993 20.6825 22.1354 19.2123 22.7479C17.7422 23.3604 16.1714 23.6666 14.4998 23.6666ZM14.0467 13.4583V18.0083C14.0467 18.2416 14.1625 18.3875 14.3941 18.4458C14.6257 18.5041 14.7919 18.4264 14.8925 18.2125L18.3967 11.1833C18.4773 11.0278 18.4722 10.8819 18.3816 10.7458C18.291 10.6097 18.1651 10.5416 18.004 10.5416H15.1342V5.93331C15.1342 5.69998 15.0184 5.55415 14.7868 5.49581C14.5552 5.43748 14.3891 5.51526 14.2884 5.72915L10.5728 12.8166C10.4922 12.9722 10.4972 13.118 10.5879 13.2541C10.6785 13.3903 10.8044 13.4583 10.9655 13.4583H14.0467Z" fill="#FFB60D"/>
</g>
<defs>
<clipPath id="clip0_18_415">
<rect width="27.3737" height="24" fill="white"/>
</clipPath>
</defs>
</svg>
