<svg width="30" height="19" viewBox="0 0 30 19" fill="none" xmlns="http://www.w3.org/2000/svg">
<path d="M22.0835 15.1137C20.171 15.1137 18.9668 15.5862 17.9043 16.0137C16.9835 16.3849 16.2327 16.6887 15.0002 16.6887C13.7252 16.6887 13.0168 16.4074 12.096 16.0137C11.0335 15.5862 9.87183 15.1137 7.91683 15.1137C5.96183 15.1137 4.80016 15.5862 3.73766 16.0137C3.1285 16.2612 2.59016 16.4749 1.9385 16.5987C1.301 16.7112 0.833496 17.1162 0.833496 17.6224V17.7349C0.833496 18.4099 1.62683 18.8937 2.4485 18.7587C3.49683 18.5899 4.29016 18.2749 5.01266 17.9824C5.9335 17.6112 6.67016 17.3074 7.91683 17.3074C9.1635 17.3074 9.90016 17.5887 10.821 17.9824C11.8835 18.4099 13.0452 18.8824 15.0002 18.8824C16.9552 18.8824 18.1168 18.4099 19.1793 17.9824C20.1002 17.6112 20.851 17.3074 22.0835 17.3074C23.3585 17.3074 24.0668 17.5887 24.9877 17.9824C25.7243 18.2749 26.5177 18.6012 27.5802 18.7699C27.7715 18.7996 27.9688 18.7955 28.158 18.758C28.3472 18.7205 28.5237 18.6504 28.675 18.5528C28.8264 18.4551 28.9489 18.3323 29.0338 18.1929C29.1188 18.0535 29.1642 17.901 29.1668 17.7462V17.6449C29.1668 17.1274 28.6852 16.7224 28.0477 16.6099C27.396 16.4974 26.8718 16.2837 26.2627 16.0249C25.2002 15.5862 23.996 15.1137 22.0835 15.1137ZM22.0835 10.1074C20.171 10.1074 18.9668 10.5912 17.9043 11.0074C16.9835 11.3674 16.2327 11.6824 15.0002 11.6824C13.7252 11.6824 13.0168 11.4012 12.096 11.0074C11.0335 10.5799 9.87183 10.1074 7.91683 10.1074C5.96183 10.1074 4.80016 10.5912 3.73766 11.0074C3.1285 11.2437 2.59016 11.4687 1.92433 11.5924C1.301 11.7049 0.833496 12.1099 0.833496 12.6162V12.7287C0.833577 12.8842 0.877303 13.0377 0.961493 13.1781C1.04568 13.3185 1.16822 13.4422 1.32019 13.5403C1.47216 13.6383 1.64974 13.7082 1.84002 13.7449C2.0303 13.7816 2.22848 13.7842 2.42016 13.7524C3.48266 13.5837 4.276 13.2574 5.01266 12.9762C5.9335 12.5824 6.64183 12.3012 7.91683 12.3012C9.19183 12.3012 9.90016 12.5824 10.821 12.9762C11.8835 13.4037 13.0452 13.8762 15.0002 13.8762C16.9552 13.8762 18.1168 13.3924 19.1793 12.9762C20.1002 12.5824 20.8085 12.3012 22.0835 12.3012C23.3585 12.3012 24.0668 12.5824 24.9877 12.9762C25.7243 13.2687 26.5177 13.5949 27.5802 13.7637C27.7727 13.7935 27.9712 13.7892 28.1614 13.751C28.3516 13.7129 28.5288 13.6418 28.6804 13.5429C28.832 13.444 28.9542 13.3198 29.0383 13.179C29.1224 13.0382 29.1663 12.8845 29.1668 12.7287V12.6274C29.1668 12.1099 28.6852 11.7049 28.0477 11.5924C27.396 11.4799 26.8718 11.2662 26.2627 11.0074C25.2002 10.5799 23.996 10.1074 22.0835 10.1074ZM26.2627 1.01743C25.2002 0.589932 24.0243 0.117432 22.0835 0.117432C20.1427 0.117432 18.9668 0.589932 17.9043 1.01743C16.9835 1.37743 16.2327 1.69243 15.0002 1.69243C13.7252 1.69243 13.0168 1.41118 12.096 1.01743C11.0335 0.601182 9.87183 0.117432 7.91683 0.117432C5.96183 0.117432 4.80016 0.589932 3.73766 1.01743C3.1285 1.26493 2.59016 1.47868 1.9385 1.60243C1.301 1.71493 0.833496 2.11993 0.833496 2.62618V2.70493C0.833496 3.37993 1.5985 3.87493 2.42016 3.73993C3.48266 3.57118 4.276 3.24493 5.01266 2.96368C5.9335 2.59243 6.67016 2.28868 7.91683 2.28868C9.1635 2.28868 9.90016 2.56993 10.821 2.96368C11.8835 3.39118 13.0452 3.86368 15.0002 3.86368C16.9552 3.86368 18.1168 3.37993 19.1793 2.96368C20.1002 2.60368 20.851 2.28868 22.0835 2.28868C23.3585 2.28868 24.0668 2.56993 24.9877 2.96368C25.7243 3.25618 26.5177 3.58243 27.5802 3.75118C27.7727 3.78101 27.9712 3.77669 28.1614 3.73853C28.3516 3.70036 28.5288 3.6293 28.6804 3.53041C28.832 3.43152 28.9542 3.30726 29.0383 3.1665C29.1224 3.02574 29.1663 2.87197 29.1668 2.71618V2.61493C29.1668 2.09743 28.6852 1.69243 28.0477 1.57993C27.396 1.46743 26.8718 1.26493 26.2627 1.01743ZM22.0835 5.10118C20.171 5.10118 18.9668 5.58493 17.9043 6.00118C16.9835 6.39493 16.2752 6.67618 15.0002 6.67618C13.7252 6.67618 13.0168 6.39493 12.096 6.00118C11.0335 5.57368 9.87183 5.10118 7.91683 5.10118C5.96183 5.10118 4.80016 5.58493 3.73766 6.00118C3.1285 6.25993 2.60433 6.47368 1.95266 6.58618C1.31516 6.69868 0.833496 7.10368 0.833496 7.62118V7.72243C0.833577 7.87793 0.877303 8.03145 0.961493 8.17184C1.04568 8.31223 1.16822 8.43595 1.32019 8.53401C1.47216 8.63206 1.64974 8.70198 1.84002 8.73869C2.0303 8.77539 2.22848 8.77795 2.42016 8.74618C3.48266 8.57743 4.276 8.25118 5.01266 7.96993C5.9335 7.60993 6.68433 7.29493 7.91683 7.29493C9.14933 7.29493 9.90016 7.57618 10.821 7.96993C11.8835 8.39743 13.0452 8.86993 15.0002 8.86993C16.9552 8.86993 18.1168 8.38618 19.1793 7.96993C20.1002 7.60993 20.851 7.29493 22.0835 7.29493C23.3585 7.29493 24.0668 7.57618 24.9877 7.96993C25.7243 8.26243 26.5177 8.58868 27.5802 8.75743C27.7715 8.7871 27.9688 8.78302 28.158 8.7455C28.3472 8.70797 28.5237 8.63791 28.675 8.54026C28.8264 8.44261 28.9489 8.31976 29.0338 8.18039C29.1188 8.04101 29.1642 7.88852 29.1668 7.73368V7.63243C29.1668 7.11493 28.6852 6.70993 28.0477 6.59743C27.396 6.48493 26.8718 6.27118 26.2627 6.01243C25.2002 5.57368 23.996 5.10118 22.0835 5.10118Z" fill="url(#paint0_linear_248_1309)"/>
<defs>
<linearGradient id="paint0_linear_248_1309" x1="15.0002" y1="0.117432" x2="15.0002" y2="18.8824" gradientUnits="userSpaceOnUse">
<stop stop-color="#FFBF00"/>
<stop offset="1" stop-color="#F2A50C"/>
</linearGradient>
</defs>
</svg>
