<svg width="29" height="26" viewBox="0 0 29 26" fill="none" xmlns="http://www.w3.org/2000/svg">
<path d="M12.2318 18.4956C11.8645 18.4956 11.4882 18.4337 11.1029 18.3101C10.7175 18.1864 10.3713 18.01 10.0641 17.7808L4.12023 13.0671C3.81578 12.8233 3.58847 12.5506 3.4383 12.2492C3.28812 11.9477 3.21304 11.6361 3.21304 11.3144C3.21304 10.9825 3.28812 10.6624 3.4383 10.3541C3.58847 10.0458 3.81578 9.77183 4.12023 9.53214L10.4422 4.55116L7.35148 2.11602C7.11633 1.92172 6.99553 1.68396 6.98906 1.40273C6.98258 1.12149 7.10837 0.880784 7.36643 0.680602C7.61155 0.484338 7.90972 0.388762 8.26094 0.393871C8.61216 0.398963 8.91033 0.498069 9.15544 0.691191L20.3617 9.53214C20.6682 9.7708 20.8961 10.0436 21.0452 10.3505C21.1943 10.6574 21.2689 10.9779 21.2689 11.3121C21.2689 11.6361 21.1943 11.9486 21.0452 12.2498C20.8961 12.551 20.6682 12.8235 20.3617 13.0671L14.3984 17.7808C14.1003 18.01 13.7597 18.1864 13.3767 18.3101C12.9937 18.4337 12.6121 18.4956 12.2318 18.4956ZM12.2507 5.97599L5.70151 11.1053H18.761L12.2507 5.97599ZM24.1439 18.8641C23.4159 18.8641 22.7983 18.664 22.2912 18.2637C21.784 17.8635 21.5304 17.3747 21.5304 16.7974C21.5304 16.4701 21.6318 16.1173 21.8346 15.7389C22.0374 15.3605 22.3121 14.9716 22.6588 14.572C22.8551 14.3169 23.085 14.0513 23.3486 13.7754C23.6121 13.4995 23.8829 13.2339 24.1609 12.9788C24.4389 13.2339 24.7149 13.5003 24.9889 13.7778C25.263 14.0554 25.5006 14.3201 25.7018 14.572C26.0356 14.9716 26.3006 15.3608 26.4969 15.7398C26.6932 16.1188 26.7913 16.4709 26.7913 16.7962C26.7913 17.3702 26.5321 17.8584 26.0136 18.2607C25.4951 18.663 24.8718 18.8641 24.1439 18.8641ZM2.96344 26.0271C2.34568 26.0271 1.82233 25.8586 1.3934 25.5216C0.964466 25.1846 0.75 24.7735 0.75 24.2881C0.75 23.8028 0.964466 23.397 1.3934 23.0709C1.82233 22.7447 2.34568 22.5816 2.96344 22.5816H26.0709C26.6792 22.5816 27.1945 22.7456 27.6167 23.0737C28.0389 23.4018 28.25 23.806 28.25 24.286C28.25 24.7661 28.0389 25.1763 27.6167 25.5166C27.1945 25.8569 26.6792 26.0271 26.0709 26.0271H2.96344Z" fill="#FFB60D"/>
</svg>
