<svg width="29" height="25" viewBox="0 0 29 25" fill="none" xmlns="http://www.w3.org/2000/svg">
<path d="M11.268 14.0625H16.2524C16.5092 14.0625 16.7244 13.9872 16.8981 13.8366C17.0718 13.686 17.1587 13.4994 17.1587 13.2767C17.1587 13.0541 17.0718 12.869 16.8981 12.7214C16.7244 12.5738 16.5092 12.5 16.2524 12.5H11.268C11.0113 12.5 10.796 12.5753 10.6223 12.726C10.4486 12.8766 10.3618 13.0632 10.3618 13.2858C10.3618 13.5085 10.4486 13.6936 10.6223 13.8412C10.796 13.9888 11.0113 14.0625 11.268 14.0625ZM11.268 11.7188H21.3878C21.6446 11.7188 21.8598 11.6435 22.0335 11.4929C22.2072 11.3423 22.2941 11.1556 22.2941 10.933C22.2941 10.7103 22.2072 10.5252 22.0335 10.3776C21.8598 10.2301 21.6446 10.1563 21.3878 10.1563H11.268C11.0113 10.1563 10.796 10.2316 10.6223 10.3822C10.4486 10.5328 10.3618 10.7195 10.3618 10.9421C10.3618 11.1648 10.4486 11.3499 10.6223 11.4974C10.796 11.645 11.0113 11.7188 11.268 11.7188ZM11.268 9.37504H21.3878C21.6446 9.37504 21.8598 9.29974 22.0335 9.14913C22.2072 8.9985 22.2941 8.81187 22.2941 8.58923C22.2941 8.36658 22.2072 8.18146 22.0335 8.03389C21.8598 7.88632 21.6446 7.81254 21.3878 7.81254H11.268C11.0113 7.81254 10.796 7.88784 10.6223 8.03845C10.4486 8.18908 10.3618 8.37571 10.3618 8.59835C10.3618 8.821 10.4486 9.00612 10.6223 9.15369C10.796 9.30126 11.0113 9.37504 11.268 9.37504ZM7.85449 19.7917C7.37116 19.7917 6.94824 19.6355 6.58574 19.323C6.22324 19.0105 6.04199 18.6459 6.04199 18.2292V3.64587C6.04199 3.22921 6.22324 2.86462 6.58574 2.55212C6.94824 2.23962 7.37116 2.08337 7.85449 2.08337H24.7712C25.2545 2.08337 25.6774 2.23962 26.0399 2.55212C26.4024 2.86462 26.5837 3.22921 26.5837 3.64587V18.2292C26.5837 18.6459 26.4024 19.0105 26.0399 19.323C25.6774 19.6355 25.2545 19.7917 24.7712 19.7917H7.85449ZM4.22949 22.9167C3.74616 22.9167 3.32324 22.7605 2.96074 22.448C2.59824 22.1355 2.41699 21.7709 2.41699 21.3542V5.98962C2.41699 5.76827 2.50434 5.58272 2.67905 5.43298C2.85377 5.28324 3.07027 5.20837 3.32853 5.20837C3.58681 5.20837 3.80154 5.28324 3.97272 5.43298C4.1439 5.58272 4.22949 5.76827 4.22949 5.98962V21.3542H22.0524C22.3092 21.3542 22.5244 21.4295 22.6981 21.5801C22.8718 21.7307 22.9587 21.9174 22.9587 22.14C22.9587 22.3627 22.8718 22.5478 22.6981 22.6954C22.5244 22.8429 22.3092 22.9167 22.0524 22.9167H4.22949Z" fill="#FFB60D"/>
</svg>
