<svg width="204" height="30" viewBox="0 0 204 30" fill="none" xmlns="http://www.w3.org/2000/svg">
<path d="M18.008 11.72C17.552 10.88 16.892 10.244 16.028 9.812C15.188 9.356 14.192 9.128 13.04 9.128C11.048 9.128 9.452 9.788 8.252 11.108C7.052 12.404 6.452 14.144 6.452 16.328C6.452 18.656 7.076 20.48 8.324 21.8C9.596 23.096 11.336 23.744 13.544 23.744C15.056 23.744 16.328 23.36 17.36 22.592C18.416 21.824 19.184 20.72 19.664 19.28H11.852V14.744H25.244V20.468C24.788 22.004 24.008 23.432 22.904 24.752C21.824 26.072 20.444 27.14 18.764 27.956C17.084 28.772 15.188 29.18 13.076 29.18C10.58 29.18 8.348 28.64 6.38 27.56C4.436 26.456 2.912 24.932 1.808 22.988C0.728 21.044 0.188 18.824 0.188 16.328C0.188 13.832 0.728 11.612 1.808 9.668C2.912 7.7 4.436 6.176 6.38 5.096C8.324 3.992 10.544 3.44 13.04 3.44C16.064 3.44 18.608 4.172 20.672 5.636C22.76 7.1 24.14 9.128 24.812 11.72H18.008ZM48.4899 8.912V29H42.3339V26.264C41.7099 27.152 40.8579 27.872 39.7779 28.424C38.7219 28.952 37.5459 29.216 36.2499 29.216C34.7139 29.216 33.3579 28.88 32.1819 28.208C31.0059 27.512 30.0939 26.516 29.4459 25.22C28.7979 23.924 28.4739 22.4 28.4739 20.648V8.912H34.5939V19.82C34.5939 21.164 34.9419 22.208 35.6379 22.952C36.3339 23.696 37.2699 24.068 38.4459 24.068C39.6459 24.068 40.5939 23.696 41.2899 22.952C41.9859 22.208 42.3339 21.164 42.3339 19.82V8.912H48.4899ZM56.0077 6.824C54.9277 6.824 54.0397 6.512 53.3437 5.888C52.6717 5.24 52.3357 4.448 52.3357 3.512C52.3357 2.552 52.6717 1.76 53.3437 1.136C54.0397 0.487998 54.9277 0.163998 56.0077 0.163998C57.0637 0.163998 57.9277 0.487998 58.5997 1.136C59.2957 1.76 59.6437 2.552 59.6437 3.512C59.6437 4.448 59.2957 5.24 58.5997 5.888C57.9277 6.512 57.0637 6.824 56.0077 6.824ZM59.0677 8.912V29H52.9117V8.912H59.0677ZM74.7249 23.78V29H71.5929C69.3609 29 67.6209 28.46 66.3729 27.38C65.1249 26.276 64.5009 24.488 64.5009 22.016V14.024H62.0529V8.912H64.5009V4.016H70.6569V8.912H74.6889V14.024H70.6569V22.088C70.6569 22.688 70.8009 23.12 71.0889 23.384C71.3769 23.648 71.8569 23.78 72.5289 23.78H74.7249ZM76.9299 18.92C76.9299 16.856 77.3139 15.044 78.0819 13.484C78.8739 11.924 79.9419 10.724 81.2859 9.884C82.6299 9.044 84.1299 8.624 85.7859 8.624C87.2019 8.624 88.4379 8.912 89.4939 9.488C90.5739 10.064 91.4019 10.82 91.9779 11.756V8.912H98.1339V29H91.9779V26.156C91.3779 27.092 90.5379 27.848 89.4579 28.424C88.4019 29 87.1659 29.288 85.7499 29.288C84.1179 29.288 82.6299 28.868 81.2859 28.028C79.9419 27.164 78.8739 25.952 78.0819 24.392C77.3139 22.808 76.9299 20.984 76.9299 18.92ZM91.9779 18.956C91.9779 17.42 91.5459 16.208 90.6819 15.32C89.8419 14.432 88.8099 13.988 87.5859 13.988C86.3619 13.988 85.3179 14.432 84.4539 15.32C83.6139 16.184 83.1939 17.384 83.1939 18.92C83.1939 20.456 83.6139 21.68 84.4539 22.592C85.3179 23.48 86.3619 23.924 87.5859 23.924C88.8099 23.924 89.8419 23.48 90.6819 22.592C91.5459 21.704 91.9779 20.492 91.9779 18.956ZM108.743 12.26C109.463 11.156 110.363 10.292 111.443 9.668C112.523 9.02 113.723 8.696 115.043 8.696V15.212H113.351C111.815 15.212 110.663 15.548 109.895 16.22C109.127 16.868 108.743 18.02 108.743 19.676V29H102.587V8.912H108.743V12.26ZM116.762 18.956C116.762 16.868 117.182 15.044 118.022 13.484C118.886 11.924 120.074 10.724 121.586 9.884C123.122 9.044 124.874 8.624 126.842 8.624C129.362 8.624 131.462 9.284 133.142 10.604C134.846 11.924 135.962 13.784 136.49 16.184H129.938C129.386 14.648 128.318 13.88 126.734 13.88C125.606 13.88 124.706 14.324 124.034 15.212C123.362 16.076 123.026 17.324 123.026 18.956C123.026 20.588 123.362 21.848 124.034 22.736C124.706 23.6 125.606 24.032 126.734 24.032C128.318 24.032 129.386 23.264 129.938 21.728H136.49C135.962 24.08 134.846 25.928 133.142 27.272C131.438 28.616 129.338 29.288 126.842 29.288C124.874 29.288 123.122 28.868 121.586 28.028C120.074 27.188 118.886 25.988 118.022 24.428C117.182 22.868 116.762 21.044 116.762 18.956ZM145.939 12.26C146.659 11.156 147.559 10.292 148.639 9.668C149.719 9.02 150.919 8.696 152.239 8.696V15.212H150.547C149.011 15.212 147.859 15.548 147.091 16.22C146.323 16.868 145.939 18.02 145.939 19.676V29H139.783V8.912H145.939V12.26ZM153.957 18.92C153.957 16.856 154.341 15.044 155.109 13.484C155.901 11.924 156.969 10.724 158.313 9.884C159.657 9.044 161.157 8.624 162.813 8.624C164.229 8.624 165.465 8.912 166.521 9.488C167.601 10.064 168.429 10.82 169.005 11.756V8.912H175.161V29H169.005V26.156C168.405 27.092 167.565 27.848 166.485 28.424C165.429 29 164.193 29.288 162.777 29.288C161.145 29.288 159.657 28.868 158.313 28.028C156.969 27.164 155.901 25.952 155.109 24.392C154.341 22.808 153.957 20.984 153.957 18.92ZM169.005 18.956C169.005 17.42 168.573 16.208 167.709 15.32C166.869 14.432 165.837 13.988 164.613 13.988C163.389 13.988 162.345 14.432 161.481 15.32C160.641 16.184 160.221 17.384 160.221 18.92C160.221 20.456 160.641 21.68 161.481 22.592C162.345 23.48 163.389 23.924 164.613 23.924C165.837 23.924 166.869 23.48 167.709 22.592C168.573 21.704 169.005 20.492 169.005 18.956ZM189.695 14.024H186.383V29H180.227V14.024H177.995V8.912H180.227V8.336C180.227 5.864 180.935 3.992 182.351 2.72C183.767 1.424 185.843 0.775999 188.579 0.775999C189.035 0.775999 189.371 0.787998 189.587 0.811998V6.032C188.411 5.96 187.583 6.128 187.103 6.536C186.623 6.944 186.383 7.676 186.383 8.732V8.912H189.695V14.024ZM203.783 23.78V29H200.651C198.419 29 196.679 28.46 195.431 27.38C194.183 26.276 193.559 24.488 193.559 22.016V14.024H191.111V8.912H193.559V4.016H199.715V8.912H203.747V14.024H199.715V22.088C199.715 22.688 199.859 23.12 200.147 23.384C200.435 23.648 200.915 23.78 201.587 23.78H203.783Z" fill="white"/>
</svg>
